<svg version="1.1" id="Layer_1" xmlns="http://www.w3.org/2000/svg" x="0" y="0" viewBox="0 0 367 100.8" style="enable-background:new 0 0 367 100.8" xml:space="preserve"><style>.st0{fill:#fff}.st1{fill:#ed1c24}</style><path d="M18.2 37.2H31c5-10.8 16-18.4 28.8-18.4 12.7 0 23.7 7.5 28.8 18.4h14.3c.9-2.2 2.6-4 4.9-4.9-.4-.9-.7-1.8-1.1-2.7-3.7 1.7-8.2.5-10.6-3-2.3-3.5-1.7-8.1 1.2-10.9l-2.1-2.1c-2.8 3-7.4 3.6-10.9 1.3s-4.7-6.8-3-10.5c-.9-.4-1.8-.8-2.7-1.1-1.4 3.8-5.4 6.2-9.6 5.3-4.1-.8-7-4.5-6.8-8.6h-3c.1 4.1-2.7 7.8-6.8 8.6-4.1.8-8.2-1.5-9.6-5.3-.9.3-1.8.7-2.7 1.1 1.7 3.7.5 8.2-3 10.5-3.5 2.3-8.1 1.7-10.9-1.3-.8.8-1.6 1.5-2.3 2.3 3 2.8 3.6 7.4 1.3 10.9s-6.8 4.7-10.5 3l-1.2 3c2.1.9 3.8 2.5 4.7 4.4M103.1 63.6H88.7c-5 11-16 18.7-28.9 18.7-12.9 0-23.9-7.7-28.9-18.7H18.8c-.8 2.3-2.6 4.3-5 5.2.4.9.7 1.8 1.2 2.7 3.7-1.7 8.2-.6 10.6 2.9 2.4 3.5 1.8 8.1-1.2 10.9l2.1 2.1c2.8-3 7.4-3.7 10.9-1.4 3.5 2.3 4.7 6.8 3.1 10.5.9.4 1.8.8 2.7 1.1 1.4-3.8 5.4-6.2 9.5-5.4 4.1.8 7 4.5 6.9 8.5h3c-.2-4.1 2.6-7.8 6.8-8.6 4.1-.9 8.2 1.5 9.6 5.3.9-.4 1.8-.7 2.7-1.1-1.7-3.7-.5-8.2 2.9-10.6 3.5-2.4 8.1-1.8 10.9 1.2l2.1-2.1c-3-2.8-3.6-7.4-1.3-10.9s6.8-4.7 10.5-3.1c.4-.9.8-1.8 1.1-2.7-2.2-.8-3.9-2.5-4.8-4.5"/><path d="M36.2 37.2c1.2-2.1 2.7-4.1 4.4-5.8 4.9-4.9 11.6-7.9 19-7.9s14.1 3 19 7.9c1.7 1.7 3.2 3.7 4.4 5.8h2C80.2 28 70.7 21.8 59.6 21.8c-11 0-20.6 6.3-25.4 15.4h2zM82.9 63.6c-1.2 2.1-2.7 4.1-4.4 5.8-4.9 4.9-11.6 7.9-19 7.9s-14.1-3-19-7.9c-1.7-1.7-3.2-3.7-4.4-5.8h-2C38.9 72.7 48.5 79 59.5 79c11 0 20.6-6.3 25.4-15.4h-2z"/><path class="st0" d="M38.9 80.4c-.1.1-.3.2-.5.4-.4.3-.6.5-1.1.8-.4.3-.8.4-1.2.4-.4-.1-.8-.3-1.1-.6-.3-.3-.5-.6-.6-.9.2 0 .2 0 .4-.1.1.2.2.5.5.7.4.4 1 .5 1.4.2l.2-.2c-.3 0-.7-.1-1.1-.4-.6-.5-.6-1.2 0-1.5.7-.4 1.5-.2 2 .2.4.3.4.6.4.8.1-.1.2-.1.3-.2.2.3.3.3.4.4m-1.2.3c.1 0 .1-.1.1-.1.1-.2.1-.5-.2-.8-.4-.3-.9-.4-1.4-.1-.4.3-.5.7 0 1.1.3.2.6.3.9.3.1 0 .2-.1.2-.1.2-.2.3-.2.4-.3zM38.9 81.9c-.4.4-.2.8.3 1.1.3.2.6.3.8.4-.1.1-.1.2-.1.3-.2-.1-.6-.2-1-.5-.8-.6-.9-1.2-.4-1.7.5-.4 1.4-.5 2.1 0 .8.5.5 1.1.2 1.4-.1.1-.1.1-.2.1-.7-.3-1-.5-1.7-1.1m1.5.8c.2-.2.4-.5-.1-.9-.4-.3-.9-.2-1.2 0 .5.3.8.5 1.3.9zM43 82.5c-.2.2-.3.3-.4.5.3.2.4.2.7.4l-.2.2c-.3-.1-.4-.2-.7-.4-.3.4-.5.5-.8.9-.2.2-.2.4.1.5.1.1.2.1.3.1l-.2.2c-.1 0-.3-.1-.5-.2s-.4-.3-.4-.4c-.1-.2 0-.3.2-.5.3-.4.5-.5.8-.9l-.4-.2.2-.2.4.2c.1-.2.2-.2.4-.4.2.1.3.1.5.2M45.3 86.7c0-.1.1-.1.1-.2-.3.1-.7.1-1.1-.1-.6-.3-.7-.7-.5-.9.3-.4 1.1-.4 2.2.1.1-.2.2-.4-.3-.7-.3-.1-.6-.2-.8-.2v-.3c.3 0 .7.1 1 .2.8.4.8.8.6 1.2-.2.3-.3.4-.4.7-.1.2-.2.3-.2.5-.3-.2-.4-.3-.6-.3m.5-1c-.6-.2-1.2-.5-1.5-.1-.1.2 0 .4.3.5.4.2.7.1.9 0l.1-.1c.1-.1.1-.2.2-.3zM47.9 87.6c.1-.1.2-.3.3-.5.5-.9.7-1.4 1.2-2.3.2.1.3.1.5.2-.2.5-.3.7-.6 1.2.3-.2.7-.2 1.1-.1.7.2 1.1.7.8 1.3-.3.7-1.1.9-1.8.7-.5-.1-.8-.3-.9-.7-.1.1-.1.2-.2.3-.1 0-.2 0-.4-.1m.9-.6v.1c0 .3.2.5.6.6.6.2 1.1-.1 1.2-.5.2-.4 0-.8-.6-1-.4-.1-.8 0-1 .2l-.1.1c0 .3 0 .4-.1.5zM53 86.2c0 .1-.2.2-.4.2s-.3-.2-.2-.3c0-.1.2-.2.4-.2.1 0 .2.1.2.3m-1.4 2.4c.3-.8.4-1.2.7-2 .2 0 .3.1.5.1-.2.8-.4 1.2-.6 2-.3 0-.4-.1-.6-.1zM53.9 87.9c.1 0 .1 0 0 0 .1-.1.2-.1.3-.2.4-.2.6-.3 1-.6.3 0 .4 0 .7.1-.5.3-.8.4-1.3.7.4.5.7.8 1.2 1.4-.3 0-.4 0-.7-.1-.4-.4-.5-.7-.9-1.1-.1.1-.2.1-.3.2-.1.3-.1.5-.2.8-.2 0-.3-.1-.6-.1.3-1.2.5-1.8.8-2.9.2 0 .3.1.5.1-.2.6-.3.9-.5 1.7M56.7 88.4c-.1.5.4.7 1 .8.4 0 .7 0 .9-.1 0 .1.1.2.1.3-.2.1-.6.1-1.1.1-1-.1-1.5-.5-1.4-1.1.1-.6.7-1 1.6-1 1 .1 1.2.6 1.2 1v.2c-1-.2-1.5-.2-2.3-.2m1.7-.2c0-.2-.1-.6-.7-.6s-.8.3-.9.5c.6 0 .9.1 1.6.1zM62.2 88.1v.3c-.6 0-1 .1-1.6.1v-.3c.7-.1 1-.1 1.6-.1M66.6 86.8c0 .1.1.3.1.6.1.5.2.7.3 1.2.1.5.1.8-.2 1-.3.2-.7.4-1.1.4-.4.1-.9.1-1.1 0 0-.1.1-.2.1-.3.2.1.6.1 1 0 .6-.1 1-.4.9-.9 0-.1 0-.1-.1-.2-.1.2-.4.4-.9.5-.8.1-1.4-.2-1.5-.8-.1-.7.5-1.1 1.1-1.2.5-.1.8.1 1 .2 0-.1 0-.2-.1-.3.3-.2.4-.2.5-.2m-.3.8c0-.1 0-.1-.1-.2-.2-.2-.5-.3-.9-.3-.5.1-.8.4-.7.9.1.4.5.7 1.1.6.4-.1.6-.2.7-.5v-.2s-.1-.1-.1-.3zM68.2 87.6c.2.5.7.6 1.3.4.4-.1.6-.2.8-.3l.2.2c-.2.1-.5.3-1 .4-1 .2-1.7 0-1.9-.6-.2-.6.2-1.2 1-1.4.9-.2 1.4.2 1.6.6 0 .1 0 .1.1.2-.9.2-1.3.3-2.1.5m1.5-.7c-.1-.2-.4-.5-1-.4-.5.1-.7.5-.6.8.6-.1.9-.2 1.6-.4zM70.8 85.1c.1.2.2.3.3.5.3-.1.4-.1.7-.2.1.1.1.2.1.3-.3.1-.4.2-.7.3l.5 1c.1.2.3.3.6.2.1 0 .2-.1.3-.1l.2.2c-.1.1-.2.1-.5.2s-.5.1-.7.1c-.2-.1-.3-.2-.5-.4l-.5-1c-.2.1-.3.1-.4.1-.1-.1-.1-.2-.1-.3.2-.1.3-.1.4-.1-.1-.2-.1-.3-.2-.5.2-.2.3-.2.5-.3M76.4 85.8l-.2-.2c-.1.2-.3.5-.7.7-.6.3-1.1.1-1.2-.1-.3-.4.2-.9 1.2-1.4-.1-.1-.4-.4-.9-.1-.2.1-.5.3-.6.4-.1-.1-.2-.1-.3-.2.2-.2.4-.4.8-.5.8-.4 1.3-.1 1.6.2.2.3.3.4.5.6.1.2.2.3.4.4-.3 0-.4.1-.6.2m-.8-.9c-.6.3-1.1.6-.9.9.1.2.4.2.7.1.4-.2.5-.4.5-.6v-.1l-.3-.3zM76.6 82c.2-.1.3-.2.4-.3.9.9 1.4 1.4 2.3 2.4-.2.1-.3.2-.5.3-.9-.9-1.3-1.4-2.2-2.4M78.5 81.3c.1.1.1.2-.1.4-.2.1-.3.1-.4 0-.1-.1-.1-.3.1-.4.1-.1.3-.1.4 0m1.6 2.3c-.7-.6-1-.9-1.6-1.6.2-.1.3-.2.4-.3.7.6 1 .9 1.7 1.5-.2.2-.3.3-.5.4zM81.4 82.7c-.6-.5-.9-.8-1.5-1.3-.1.1-.2.1-.3.2l-.2-.2c.1-.1.2-.1.3-.2l-.1-.1c-.2-.2-.4-.5-.3-.7 0-.2.2-.4.4-.6.1-.1.3-.2.4-.2l.2.2c-.1 0-.2.1-.3.2-.3.3-.2.5.1.8 0 0 .1 0 .1.1.2-.2.3-.3.6-.4.1.1.2.1.3.2-.2.2-.3.3-.6.4.6.5.9.8 1.5 1.3-.3.1-.4.2-.6.3M82.2 80.8c.5.3 1 .2 1.5-.2.3-.3.4-.5.5-.7.1 0 .2.1.3.1-.1.2-.3.5-.6.8-.7.7-1.5.7-2.1.3-.6-.4-.6-1.1 0-1.7.7-.6 1.4-.5 1.8-.2.1 0 .1.1.2.1-.6.6-1 .9-1.6 1.5m.9-1.3c-.2-.2-.7-.3-1.1.1-.4.4-.3.7-.1 1 .5-.4.8-.6 1.2-1.1zM34.2 27.6c-.5-.5-.8-.7-1.3-1.1l-.3.3-.2-.2.3-.3-.1-.1c-.2-.2-.3-.5-.2-.8.1-.3.2-.5.4-.8.2-.2.3-.3.4-.3.1.1.1.2.1.3-.1 0-.2.1-.3.2-.4.4-.3.7 0 .9l.1.1c.2-.2.3-.4.6-.6l.2.2-.6.6c.5.5.7.7 1.2 1.1 0 .2-.1.3-.3.5M34.3 24.7h1.1v-.5c0-.2 0-.4.1-.6.2-.2.3-.3.5-.4-.1.6-.1.9-.2 1.5h1.5c-.2.2-.3.3-.5.4h-1.1v1.1l-.4.4c0-.6 0-.9.1-1.5-.6 0-.9.1-1.5.1.1-.3.2-.4.4-.5M37.7 24.3c-.1-.1-.2-.3-.3-.4-.6-.8-.9-1.1-1.5-1.9.2-.2.3-.2.5-.4.3.5.5.7.8 1.1 0-.3.2-.7.6-1 .6-.5 1.3-.5 1.7 0 .4.6.1 1.3-.5 1.7-.3.3-.7.4-1 .3.1.1.1.2.2.3-.3.1-.4.1-.5.3m-.1-1 .1.1c.2.1.6.1.9-.2.5-.4.6-.8.3-1.2-.2-.3-.7-.4-1.2 0-.3.3-.5.6-.4.9 0 0 0 .1.1.1.1.1.1.2.2.3zM39.6 19.4c.1.1 0 .3-.2.4-.2.1-.3.1-.4 0-.1-.1 0-.3.2-.4.2-.1.4-.1.4 0m.9 2.7c-.4-.7-.7-1-1.1-1.8.2-.1.3-.2.5-.3.4.7.6 1.1 1.1 1.8-.2.1-.3.2-.5.3zM41.6 20c0-.1.1-.3.1-.4.2-.4.3-.7.4-1.1l.6-.3c-.3.6-.4.8-.6 1.4.7.2 1 .3 1.7.5-.2.1-.3.2-.6.3-.5-.2-.8-.3-1.4-.4-.1.1-.1.2-.1.3.2.3.2.4.4.7-.2.1-.3.2-.5.3-.6-1.1-.9-1.6-1.5-2.7.2-.1.3-.2.5-.3.5.7.7 1 1 1.7M44 18.8c.2.5.7.5 1.2.2.3-.2.5-.3.7-.5l.2.2c-.1.1-.4.3-.8.5-.8.4-1.5.2-1.7-.4-.3-.6 0-1.3.8-1.8.9-.5 1.4 0 1.5.4v.2c-.7.6-1.1.8-1.9 1.2m1.4-1c-.1-.2-.4-.6-.9-.3s-.6.7-.5 1c.5-.3.8-.4 1.4-.7zM46.6 18.4c-.1-.2 0-.3.2-.4.2-.1.4 0 .4.1.1.2 0 .3-.2.4-.1.1-.3.1-.4-.1M47.5 15.9c.4.4.6.6.9 1 .1.2.3.3.4.5 0-.2 0-.4.1-.6.1-.6.1-.9.2-1.4.2-.1.3-.1.5-.2-.2 1-.3 1.5-.5 2.6-.2.1-.3.1-.5.2-.7-.7-1-1.1-1.7-1.8.3-.2.4-.2.6-.3M50.3 15.6c-.1-.2-.1-.4-.2-.6.2-.1.3-.1.5-.1 0 .1.1.2.1.4.1-.3.4-.5.9-.7.4-.1 1.1 0 1.2.8.1.5.1.8.2 1.4-.2 0-.3.1-.5.1-.1-.5-.1-.8-.2-1.3-.1-.4-.3-.6-.8-.5-.4.1-.6.3-.6.6v.2c.1.5.2.8.3 1.4-.2.1-.3.1-.5.1-.2-.8-.3-1.1-.4-1.8M56.4 14.9v.3c-.6 0-1 .1-1.6.1V15c.7 0 1-.1 1.6-.1M58.8 14l.5.5c.1.1.2.3.3.4.1-.1.2-.3.3-.4l.5-.5h.7c-.5.4-.7.6-1.1 1.1.5.5.7.7 1.1 1.2h-.7l-.5-.5c-.1-.1-.2-.3-.4-.4-.1.1-.2.3-.3.4-.2.2-.3.3-.4.5h-.6c.4-.5.6-.7 1.1-1.2-.5-.5-.7-.7-1.2-1.1h.7M61.9 15.3c0 .6.5.8 1.1.9h.9c0 .1 0 .2.1.3-.2 0-.6.1-1.1 0-1-.1-1.5-.6-1.5-1.3 0-.7.6-1.2 1.6-1.1 1.1.1 1.3.8 1.3 1.2v.2c-1.1 0-1.5-.1-2.4-.2m1.7-.1c0-.3-.1-.7-.8-.8-.6-.1-.9.3-.9.6.7.1 1 .1 1.7.2zM67.9 13.9c-.2 1.1-.3 1.7-.4 2.8 0 .2-.1.4-.1.6-.2 0-.3-.1-.5-.1v-.4c-.2.2-.6.3-1.1.3-.7-.1-1.3-.7-1.2-1.4.1-.8.8-1.1 1.6-1 .5.1.8.3.9.5.1-.5.1-.8.2-1.4.2 0 .4 0 .6.1m-.9 1.8v-.2c-.1-.3-.3-.6-.8-.6-.6-.1-1 .2-1 .7 0 .5.2.9.8 1 .4.1.7-.1.9-.3 0-.1 0-.1.1-.2v-.4zM69.9 17.8v-.3c-.2.1-.5.2-.9.1-.6-.1-.8-.5-.8-.9.1-.6.8-.7 1.9-.4 0-.2 0-.5-.6-.7-.3-.1-.6-.1-.8 0 0-.1 0-.2-.1-.3.3-.1.7-.1 1 0 .9.2 1 .8.9 1.2-.1.3-.1.5-.2.8 0 .2-.1.4-.1.6-.1 0-.2-.1-.3-.1m.1-1.2c-.6-.2-1.3-.2-1.3.2 0 .3.2.4.4.5.4.1.6 0 .8-.2 0 0 0-.1.1-.1v-.4zM71.5 16.6c.1-.3.1-.5.2-.7.2.1.3.1.5.1 0 .2 0 .2-.1.4.3-.2.7-.3 1.1-.1.7.2 1 .9.8 1.6-.3.8-.9 1-1.6.7-.3-.1-.6-.4-.7-.6-.1.5-.2.7-.3 1.2-.2-.1-.3-.1-.5-.1.2-1 .3-1.5.6-2.5m.3.8v.2c0 .3.3.6.6.7.5.2.9-.1 1.1-.6.1-.4 0-.9-.6-1.1-.3-.1-.7 0-.9.2 0 0-.1.1-.1.2s-.1.2-.1.4zM75.2 16.1c.2.1.3.1.5.2-.2.5-.3.8-.5 1.4.1-.1.3-.1.4-.1.2 0 .4 0 .5.1.4.2.8.6.5 1.4-.2.5-.3.8-.5 1.3-.2-.1-.3-.1-.4-.2.2-.5.3-.7.5-1.2.1-.3.1-.7-.3-.9-.3-.1-.6-.1-.8.1 0 0-.1.1-.1.2-.2.5-.3.8-.5 1.3-.2-.1-.3-.1-.5-.2.6-1.5.8-2.2 1.2-3.4M77.7 19.1c.1-.2.2-.4.2-.6l.4.2c-.1.1-.1.2-.1.4.2-.1.6-.2 1 .1.3.2.8.7.4 1.5-.3.5-.4.8-.6 1.2-.2-.1-.3-.2-.4-.3.2-.5.4-.7.6-1.2.2-.3.2-.7-.3-1-.3-.2-.6-.1-.8 0 0 0-.1.1-.1.2-.2.5-.3.8-.6 1.3-.2-.1-.3-.2-.4-.3.2-.5.4-.9.7-1.5M79.7 22.1c.1-.2.3-.2.4-.1.2.1.2.3.1.5s-.3.2-.4.1c-.1-.1-.2-.3-.1-.5M81.5 21.6l.3-.6c.2.1.2.2.4.3-.1.1-.1.2-.2.4.2-.1.6-.1 1 .2.3.3.7.9.3 1.5-.3.5-.5.7-.8 1.2-.2-.1-.2-.2-.4-.3.3-.5.4-.7.7-1.1.2-.3.2-.7-.2-1-.3-.2-.6-.2-.8-.1l-.1.1c-.3.5-.4.7-.7 1.2-.2-.1-.2-.2-.4-.3.4-.6.5-.9.9-1.5M84 24.6c-.3.5-.1 1 .3 1.4.3.3.5.4.7.5 0 .1-.1.2-.1.3-.2-.1-.5-.3-.8-.6-.7-.6-.8-1.4-.4-2 .4-.6 1.1-.7 1.8 0 .8.7.5 1.5.3 1.8l-.1.1c-.7-.6-1-.9-1.7-1.5m1.4.9c.2-.2.3-.7-.2-1.1-.4-.4-.8-.2-1 0 .5.4.7.6 1.2 1.1zM87.8 25.7c-.2.2-.3.3-.4.5.2.3.4.4.6.6l-.2.2c-.2-.3-.4-.4-.6-.6-.3.4-.5.6-.8 1-.2.2-.2.4 0 .7l.2.2c-.1.1-.1.2-.2.3-.1-.1-.2-.2-.4-.3-.2-.2-.3-.4-.3-.6 0-.2.1-.4.2-.6.3-.4.5-.6.8-1-.1-.1-.2-.2-.3-.4.1-.1.1-.2.2-.3l.4.4c.1-.2.2-.3.4-.4.1.1.2.1.4.3"/><path class="st1" d="M27 46.9c.2.3.2.6.1.8-.1.5-.5.8-1.2.8-.3 0-.8-.2-1.5-.6-.6-.4-1.2-.7-1.8-1-.5-.3-1.2-.6-2.1-.9-.9-.3-2-.5-3.5-.5h-2c-1.1 0-1.8.1-2.2.4-.2.2-.5.7-.7 1.5l-.3 1.1c-.1.5-.1.8 0 .9.2.1.5.2.9.2h1c.8 0 1.4-.2 1.9-.6.4-.4.8-.6 1.3-.6.3 0 .5.1.7.2l.4.4 1.9 3.2c.2.3.2.5.1.7-.2.6-.6.9-1.4.9-.4 0-1-.3-1.8-.9-.8-.6-2-.9-3.7-.9-1.1 0-1.8.1-2 .2-.3.1-.5.6-.7 1.4l-1.2 4.6c-.1.4.1.7.5.9.6.2 1 .3 1.1.4.3.1.5.3.4.6-.1.4-.3.6-.7.8-.3.1-1 .2-2 .2H2.3c-1.1 0-1.8-.1-2-.2-.2-.1-.3-.4-.2-.8.1-.3.2-.5.5-.6.3-.1.5-.2.8-.3.3-.1.5-.2.8-.2.6-.2 1-.5 1.1-1l3.2-11.8c.1-.4 0-.7-.5-.9l-1.1-.4c-.3-.2-.4-.4-.4-.7.2-.7 1.3-1.1 3.3-1.1h13c.5 0 1-.1 1.5-.2.5-.2.9-.3 1.2-.3.5 0 .9.2 1.3.7l2.2 3.6zM47.4 60.4c-.1.4-.7.6-1.9.6h-6.6c-.9 0-1.3-.2-1.2-.7.1-.3.4-.5 1-.8.6-.2.9-.4 1-.5.1-.2-.5-.8-1.6-1.8-1.8 1.1-2.8 1.8-2.9 2.1 0 .1.1.3.5.4.4.1.5.4.4.7-.1.4-.6.6-1.5.6h-5.8c-.8 0-1.2-.2-1.1-.7.1-.4.5-.7 1.2-.9 1-.2 1.8-.5 2.5-.9.6-.4 1.4-.8 2.3-1.4.9-.5 1.8-1.1 2.9-1.8-.4-.4-.8-.9-1.3-1.5s-1.1-1.3-1.7-2c-.1-.2-.5-.5-1.2-.9s-1-.8-1-1c.1-.5.6-.7 1.5-.7h7c.6 0 .8.2.7.7-.1.3-.3.5-.8.7-.4.2-.7.4-.8.7 0 .1.5.7 1.6 1.8 1.7-.9 2.6-1.6 2.7-1.9.1-.2-.1-.4-.6-.6-.5-.2-.6-.4-.6-.7.1-.5.5-.7 1.1-.7h6.2c.6 0 .9.2.8.7-.1.2-.3.4-.8.6l-1.8.9-5.5 3.3 3.6 4.2c.1.2.5.4 1 .6.6.2.8.5.7.9M72.1 55.2c-.4 1.5-1.2 2.8-2.4 3.6-1.2.9-2.2 1.5-3.1 1.8-.9.3-2 .5-3.1.5-1.3 0-2.5-.2-3.4-.6-.9-.4-1.5-.6-1.8-.6-.2 0-.7.2-1.7.6-1 .4-1.8.6-2.5.6-.5 0-.7-.2-.6-.7L57.1 47c.1-.4-.1-.8-.6-1.1-.5-.3-.8-.6-.8-.9.1-.3 1.1-.8 3.2-1.5 2-.7 3.3-1 3.7-1 .6 0 .7.3.6.9l-1.6 6c1.6-.4 3-.6 4.2-.6 1.7 0 3.4.5 4.9 1.6 1.6.8 2 2.5 1.4 4.8M67.6 54c.2-.7.1-1.4-.4-2.2-.4-.8-1.2-1.2-2.2-1.2-1.1 0-2.2.3-3.2.9-.7.5-1.1.9-1.2 1.4l-.7 2.6c-.3 1-.2 1.8.4 2.2.5.5 1.1.7 1.7.8 1.2 0 2.4-.4 3.4-1.3 1.2-.8 1.9-1.9 2.2-3.2zM81 60.3c-.1.5-.7.7-1.8.7h-6.4c-.9 0-1.2-.2-1.1-.7.1-.5.6-.8 1.3-1.1.8-.2 1.2-.6 1.4-1.1l1.6-6c.1-.3-.2-.6-.9-.8-.6-.2-.9-.4-.8-.9.1-.3 1.3-.9 3.3-1.6 2.1-.8 3.4-1.2 3.8-1.2.3 0 .5 0 .6.1.1 0 .1.2 0 .5l-2.7 10c-.1.5.1.8.8 1.1.8.3 1 .6.9 1M102 60.1c-.2.6-1 .9-2.5.9h-2.8c-.7 0-1.1-.1-1.2-.2-.2-.2-.4-.5-.7-1.1L92.6 55l-2.4 1.8-.3 1.1c-.2.7.1 1.1.7 1.4.7.2 1 .6.9 1-.1.5-.6.7-1.4.7h-6.9c-.8 0-1.1-.2-1-.7.1-.4.6-.8 1.3-1.1.8-.4 1.2-.8 1.4-1.2l2.8-10.3c.2-.6-.1-1-.7-1.3-.6-.3-.9-.6-.8-1 .1-.4 1.1-1 3.1-1.8s3.3-1.2 3.8-1.2c.6 0 .9.2.8.6l-2.8 10.3 3.5-2.4.2-.2-.1-.1c-.1-.1-.3-.2-.6-.3-.3-.2-.5-.4-.4-.6.1-.5.6-.7 1.4-.7h5.9c.7 0 1 .2.9.7-.1.4-.7.7-1.7 1-1 .3-2.1.9-3.1 1.6l2.7 6.3c.2.3.6.5 1.2.7.8.1 1.1.4 1 .8M120.4 57.7c-.1.3-.5.7-1.2 1.2-1 .7-2.3 1.3-3.8 1.8s-3.3.7-5.3.7c-2.8 0-4.8-.6-6.1-1.8-1.3-1.2-1.6-2.7-1.1-4.5.5-2 1.8-3.5 3.7-4.7 2-1.2 4.3-1.8 7.1-1.8 2 0 3.6.4 4.8 1.2 1.2.8 1.8 1.8 1.8 2.9 0 .2-.2.3-.7.6L109 56.9c0 .4.4.9 1.2 1.3.8.5 1.9.7 3.1.7 1.1 0 1.9-.1 2.5-.3.6-.2 1.3-.6 2.1-1s1.4-.7 1.9-.7c.5.1.7.3.6.8m-5.8-4.6c.2-.6 0-1.2-.6-1.7s-1.2-.8-2-.8c-.2 0-.6 0-1 .1-.5 0-1 .3-1.5.7-.5.4-.9.9-1 1.5-.3 1-.3 1.7-.1 2.3l6.2-2.1z"/><path class="st1" d="M30.4 54.6c-.2.6-1 1.1-1.8 1.1h-4.9c-.8 0-1.4-.5-1.2-1.1.2-.6 1-1.1 1.8-1.1h4.9c.9-.1 1.4.4 1.2 1.1M87.4 38.7c-1.2 0-2.2.5-2.8 1.2-1.1-.7-2.1-1.4-2.1-1.4v-.4l-.8-.2-1.1.5.2.3.9-.5.3.1v.4s.4.2.8.5L79.1 41l-.1-.1s.8-.5.8-.8c0-.3-2.6 1-2.6 1 .2.4.9.3 1.3.1l.4.2-.2 1.2h-.1c-1.8 0-3.2 1.1-3.2 2.5s1.4 2.5 3.2 2.5c1.8 0 3.2-1.1 3.2-2.5 0-.2 0-.5-.1-.7l1-.3-.1-.1s.1.3.4.2l.3.6-.3.1.1.2.6-.2-.1-.2-.1.1-.2-.6s.4-.3 0-.6l.9-3.5c.1.1.2.1.3.2-.1.3-.2.6-.2.9 0 1.4 1.4 2.5 3.2 2.5 1.8 0 3.2-1.1 3.2-2.5-.1-1.4-1.5-2.5-3.3-2.5m-8.5 5.6.2-1.1c.8.1 1.5.5 1.8 1l-1.3.4c-.2-.2-.5-.3-.7-.3zm-.3 2.8c-1.4.1-2.6-.8-2.7-1.9 0-1.1 1.1-2 2.5-2.1l-.2 1.1c-.2 0-.3.1-.5.1-.5.2-.7.8-.4 1.2.3.4 1 .5 1.6.3.4-.2.6-.5.5-.9l1.4-.4c0 .1.1.3.1.4.3 1.2-.9 2.1-2.3 2.2zm2.8-3.1c-.4-.7-1.3-1.2-2.3-1.3l.2-1 3.1 2-1 .3zm.8-1h.1l.1.2-.2-.2zm.2.4v-.2l.1.2h-.1zm.4-.3-.2-.2.1-.1-.1-.1-.5.2.1.2-2.6-1.7 3.8-1.7c.1 0 .1.1.2.1l-.8 3.3zm4.7 0c-1.4.1-2.6-.8-2.7-1.9 0-.2 0-.4.1-.7.5.3 1 .4 1.3.5 0 .1.1.3.2.4.3.4 1 .5 1.6.3.5-.2.7-.8.4-1.2-.3-.4-1-.5-1.6-.3-.2.1-.4.3-.5.4-.3-.1-.7-.3-1.1-.6.4-.6 1.3-1 2.2-1 1.4-.1 2.6.8 2.7 1.9 0 1.2-1.2 2.1-2.6 2.2z"/><g><path d="m131.9 31.5 5.5 8.1c.9 1.3 1.6 2.2 1.9 2.5s.8.5 1.4.5v.5H131v-.5c.8-.1 1.3-.2 1.5-.4s.3-.4.3-.6c0-.2 0-.3-.1-.5-.1-.3-.5-.8-1-1.6l-2.9-4.3-3 3.7c-.9 1.1-1.4 1.9-1.4 2.3 0 .3.1.5.4.8s.6.4 1 .5c.2.1.6.1 1.3.1v.5h-7.6v-.5c.9-.1 1.6-.4 2.1-.7.7-.4 1.6-1.4 2.7-2.8l3.9-4.8-5.1-7.4c-.8-1.2-1.3-1.9-1.4-2-.3-.3-.5-.6-.8-.7s-.6-.2-1.1-.3v-.5h9.9v.5h-.5c-.6 0-1 .1-1.2.3-.2.2-.3.4-.3.7 0 .2 0 .4.1.6l1 1.5 2.5 3.8 2.1-2.6c1.1-1.3 1.6-2.2 1.6-2.8 0-.3-.1-.5-.2-.7s-.4-.4-.7-.5-.7-.2-1.3-.2v-.5h7.3v.5c-.6 0-1 .1-1.4.2s-.7.4-1.1.7c-.3.2-.9 1-1.9 2.2l-3.8 4.4zM149 24.4v8.1h.4c1.3 0 2.2-.4 2.7-1.2s.9-2 1.1-3.5h.6v10.4h-.6c-.1-1.1-.4-2.1-.7-2.8s-.8-1.2-1.3-1.5-1.2-.4-2.2-.4v5.6c0 1.1 0 1.8.1 2s.3.4.5.6.7.2 1.2.2h1.2c1.9 0 3.3-.4 4.5-1.3 1.1-.9 1.9-2.2 2.4-3.9h.5l-.9 6.3h-17.2v-.5h.7c.6 0 1-.1 1.4-.3.3-.1.4-.4.6-.7.1-.2.2-.8.2-1.8V26.6c0-.9 0-1.5-.1-1.7-.1-.3-.3-.6-.5-.8-.4-.3-.9-.4-1.5-.4h-.7v-.5H158v5.9h-.6c-.3-1.4-.7-2.5-1.2-3.1-.5-.6-1.2-1.1-2.2-1.4-.5-.2-1.6-.3-3.1-.3H149zM168.9 43.1v-.5h.7c.6 0 1-.1 1.3-.3.3-.2.5-.4.7-.7.1-.2.1-.8.1-1.8v-6.5h-2.8v-1.1h2.8v-5.4c0-1-.1-1.7-.2-1.9s-.3-.5-.7-.7c-.3-.2-.8-.3-1.3-.3h-.7v-.5h8.9c2.4 0 4.3.3 5.7 1 1.8.8 3.1 2 4 3.6s1.4 3.4 1.4 5.4c0 1.4-.2 2.7-.7 3.9s-1 2.1-1.7 2.9c-.7.8-1.5 1.4-2.5 1.8s-2.1.8-3.4 1.1c-.6.1-1.5.2-2.8.2h-8.8zm7.6-18.7v7.7h4.4v1.1h-4.4v6.7c0 .8 0 1.3.1 1.5s.2.3.4.4c.3.1.7.2 1.1.2 1.6 0 2.9-.6 3.8-1.7 1.2-1.5 1.7-3.8 1.7-7 0-2.5-.4-4.6-1.2-6.1-.6-1.2-1.4-2-2.4-2.4-.7-.3-1.9-.4-3.5-.4zM202.5 37.5h-7l-.8 1.9c-.3.6-.4 1.2-.4 1.6 0 .6.2 1 .7 1.2.3.2.9.3 1.9.4v.5h-6.6v-.5c.7-.1 1.3-.4 1.8-.9s1-1.5 1.7-3l7.1-15.8h.3l7.2 16.3c.7 1.5 1.2 2.5 1.7 2.9.3.3.8.5 1.4.5v.5h-9.6v-.5h.4c.8 0 1.3-.1 1.6-.3.2-.2.3-.4.3-.7 0-.2 0-.4-.1-.5 0-.1-.2-.5-.4-1.1l-1.2-2.5zm-.5-1.1-3-6.8-3 6.8h6zm-2.1 8.2c.7 0 1.3.2 1.7.7.5.5.7 1.1.7 1.7 0 .7-.2 1.2-.7 1.7s-1.1.7-1.7.7-1.2-.2-1.7-.7c-.5-.5-.7-1-.7-1.7s.2-1.2.7-1.7c.5-.5 1.1-.7 1.7-.7zM219.8 34.1v5.5c0 1.1.1 1.8.2 2 .1.3.4.5.7.7.3.2 1 .2 1.9.2v.5h-10.1v-.5c.9 0 1.5-.1 1.9-.3s.6-.4.7-.7c.1-.3.2-.9.2-2V26.7c0-1.1-.1-1.8-.2-2-.1-.3-.4-.5-.7-.7s-1-.2-1.9-.2v-.5h8.7c2.9 0 4.9.5 6.1 1.5s1.9 2.3 1.9 3.8c0 1.3-.4 2.4-1.2 3.3s-1.9 1.5-3.3 1.9c-1 .2-2.6.3-4.9.3zm0-9.7V33h.7c1.2 0 2.1-.4 2.8-1.1s1-1.8 1-3.3c0-1.5-.3-2.6-1-3.2s-1.6-1-2.9-1h-.6zM244.1 24.4v8.2h.6c.9 0 1.6-.1 2.2-.4s1-.7 1.4-1.3.6-1.5.8-2.5h.5v10h-.6c-.2-1.9-.7-3.1-1.5-3.7s-1.8-.9-2.8-.9h-.6v6.1c0 1 .1 1.7.2 1.9.1.3.3.5.7.7s.8.3 1.3.3h.7v.5h-10.4v-.5h.7c.6 0 1-.1 1.4-.3.3-.1.4-.4.6-.7.1-.2.2-.8.2-1.8V26.6c0-1-.1-1.7-.2-1.9s-.3-.5-.7-.7-.8-.3-1.3-.3h-.7v-.5h16.8v5.7h-.6c-.1-1.3-.5-2.3-1-3s-1.4-1.1-2.4-1.4c-.6-.1-1.7-.2-3.3-.2h-2zM263.5 37.7H255v-3h8.5v3zM276.9 31.5l5.5 8.1c.9 1.3 1.6 2.2 1.9 2.5s.8.5 1.4.5v.5H276v-.5c.8-.1 1.3-.2 1.5-.4s.3-.4.3-.6c0-.2 0-.3-.1-.5-.1-.3-.5-.8-1-1.6l-2.9-4.3-3 3.7c-.9 1.1-1.4 1.9-1.4 2.3 0 .3.1.5.4.8s.6.4 1 .5c.2.1.6.1 1.3.1v.5h-7.6v-.5c.9-.1 1.6-.4 2.1-.7.7-.4 1.6-1.4 2.7-2.8l3.9-4.8-5.1-7.4c-.8-1.2-1.3-1.9-1.4-2-.3-.3-.5-.6-.8-.7s-.6-.2-1.1-.3v-.5h9.9v.5h-.5c-.6 0-1 .1-1.2.3s-.3.4-.3.7c0 .2 0 .4.1.6l1 1.5 2.5 3.8 2.1-2.6c1.1-1.3 1.6-2.2 1.6-2.8 0-.3-.1-.5-.2-.7s-.4-.4-.7-.5-.7-.2-1.3-.2v-.5h7.3v.5c-.6 0-1 .1-1.4.2s-.7.4-1.1.7c-.3.2-.9 1-1.9 2.2l-3.8 4.4zM306.7 32.6c1.9.4 3.2 1 4 1.6 1.1.9 1.6 2 1.6 3.5s-.6 2.7-1.8 3.7c-1.5 1.2-3.6 1.8-6.4 1.8H294v-.5c.9 0 1.5-.1 1.9-.3.3-.2.6-.4.7-.7.1-.3.2-.9.2-2v-13c0-1.1-.1-1.8-.2-2-.1-.3-.4-.5-.7-.7s-1-.2-1.9-.2v-.5h9.5c2.3 0 3.9.2 4.8.6s1.7 1 2.2 1.8.8 1.7.8 2.6c0 1-.3 1.8-1 2.6s-1.9 1.2-3.6 1.7zm-5.3.7V40.4c0 .5.1.9.4 1.2s.7.4 1.2.4c.8 0 1.5-.2 2.2-.5.7-.3 1.2-.8 1.5-1.5s.5-1.4.5-2.2c0-.9-.2-1.8-.6-2.5s-1-1.3-1.8-1.5-1.9-.5-3.4-.5zm0-1.1c1.4 0 2.4-.2 3.1-.5.7-.3 1.2-.8 1.5-1.3s.5-1.3.5-2.2-.2-1.6-.5-2.2c-.3-.6-.8-1-1.5-1.3s-1.7-.4-3.1-.4v7.9zM324.3 42.6v.5H314v-.5h.7c.6 0 1-.1 1.4-.3.3-.1.4-.4.6-.7.1-.2.2-.8.2-1.8V26.6c0-1-.1-1.7-.2-1.9s-.3-.5-.7-.7c-.3-.2-.8-.3-1.3-.3h-.7v-.5h10.4v.5h-.7c-.6 0-1 .1-1.4.3-.3.1-.5.4-.6.7-.1.2-.2.8-.2 1.8v13.1c0 1 .1 1.7.2 1.9s.3.5.7.7c.3.2.8.3 1.3.3h.6zM337.5 30.8l7 8.7c1 1.2 1.8 2.1 2.5 2.5.5.3 1.1.5 1.6.5v.5h-10.3v-.5c.7-.1 1.1-.2 1.3-.3.2-.1.3-.3.3-.5 0-.4-.4-1.2-1.3-2.3l-4.6-5.7-.7.6v5.4c0 1 .1 1.7.2 1.9s.3.5.7.7.9.3 1.6.3v.5h-10v-.5h.7c.6 0 1-.1 1.4-.3.3-.1.4-.4.6-.7.1-.2.2-.8.2-1.8V26.6c0-1-.1-1.7-.2-1.9s-.3-.5-.7-.7-.8-.3-1.3-.3h-.7v-.5h9.9v.5c-.7 0-1.2.1-1.5.3-.3.1-.5.4-.6.7-.1.2-.2.9-.2 1.9v6.2l7.4-6c1-.8 1.5-1.5 1.5-2 0-.4-.2-.7-.6-.9-.2-.1-.7-.2-1.6-.2v-.5h7.7v.5c-.7 0-1.2.2-1.6.4-.4.2-1.3.9-2.7 2l-6 4.7zM356.5 24.4v8.1h.4c1.3 0 2.2-.4 2.7-1.2s.9-2 1.1-3.5h.6v10.4h-.6c-.1-1.1-.4-2.1-.7-2.8s-.8-1.2-1.3-1.5-1.2-.4-2.2-.4v5.6c0 1.1 0 1.8.1 2s.3.4.5.6.7.2 1.2.2h1.2c1.9 0 3.3-.4 4.5-1.3 1.1-.9 1.9-2.2 2.4-3.9h.5L366 43h-17v-.5h.7c.6 0 1-.1 1.4-.3.3-.1.4-.4.6-.7.1-.2.2-.8.2-1.8V26.6c0-.9 0-1.5-.1-1.7-.1-.3-.3-.6-.5-.8-.4-.3-.9-.4-1.5-.4h-.8v-.5h16.6v5.9h-.6c-.3-1.4-.7-2.5-1.2-3.1-.5-.6-1.2-1.1-2.2-1.4-.5-.2-1.6-.3-3.1-.3h-2z"/></g><g><path d="m131.2 64.7.9-.9-.6 3.4h-1.1l.2-3.4H141l.2 3.4H140l-.6-3.4.9.9h-9.1zm4.7 10.8 2.7.3v.8h-5.7v-.8l2.7-.3h.3zm-1-5.8c0-2 0-3.9-.1-5.9h1.8c-.1 1.9-.1 3.9-.1 5.9v.9c0 2 0 3.9.1 5.9h-1.8c.1-1.9.1-3.9.1-5.9v-.9zM144.7 71.5c.8-.3 2-.6 2.9-.8v.7c-.9.2-2 .5-2.5.8-1.7.7-1.9 1.4-1.9 1.9 0 1 .7 1.4 1.5 1.4.7 0 1-.2 2.2-1.1l.4-.3.3.4-.6.6c-1.1 1.1-1.8 1.7-2.9 1.7-1.4 0-2.5-.8-2.5-2.4 0-1.1.5-1.9 3.1-2.9zm2.2 3.3v-4.3c0-1.9-.5-2.3-1.8-2.3-.4 0-1 .1-1.7.3l.8-.6-.5 1.6c-.2.6-.5.9-1 .9s-.8-.3-.9-.8c.4-1.4 1.8-2.3 3.7-2.3 2 0 2.9.9 2.9 3.3v4c0 .9.3 1.2.7 1.2.3 0 .5-.2.7-.4l.4.4c-.5.7-1 1-1.6 1-1.1-.1-1.7-.9-1.7-2zm-2.3-11.6h1.6l-3.2 2.9-.4-.4 2.5-3.3h.6l2.5 3.3-.4.4-3.2-2.9zm-.5 16c0-.7.6-1.2 1.3-1.2.7 0 1.3.5 1.3 1.2s-.6 1.2-1.3 1.2c-.7-.1-1.3-.5-1.3-1.2zM152.4 76.5c0-.9.1-2.8.1-4v-.9c0-1 0-1.6-.1-2.4l-1.5-.2v-.7l2.6-1.1.3.2.2 2.2v2.9c0 1.2 0 3.1.1 4h-1.7zm3-.7v.7H151v-.7l2.1-.4h.4l1.9.4zm4.4-5v1.7c0 1.2 0 3.1.1 4h-1.6c0-.9.1-2.8.1-4v-1.6c0-1.8-.5-2.3-1.6-2.3-.9 0-1.7.4-2.8 1.3h-.4V69h1l-.8.3c.9-1.2 2.4-2.1 3.8-2.1 1.4.1 2.2 1.1 2.2 3.6zm-.5 4.7 1.9.4v.7h-4.4v-.7l2.1-.4h.4zM170.5 75.8c.4 0 .8-.2 1.3-.5l.4.5c-.5.6-1.3 1-2.2 1-1.3 0-2.1-.7-2.1-2.1v-6.1h-1.6v-.8l2.4-.3-.8.6.6-3.1h1.1l-.2 3.3v6.2c.1.9.5 1.3 1.1 1.3zm1.6-8.3v1h-3.4v-1h3.4zM176.3 71.5c.8-.3 2-.6 2.9-.8v.7c-.9.2-2 .5-2.5.8-1.7.7-1.9 1.4-1.9 1.9 0 1 .7 1.4 1.5 1.4.7 0 1-.2 2.2-1.1l.4-.3.3.4-.6.6c-1.1 1.1-1.8 1.7-2.9 1.7-1.4 0-2.5-.8-2.5-2.4 0-1.1.6-1.9 3.1-2.9zm2.2 3.3v-4.3c0-1.9-.5-2.3-1.8-2.3-.4 0-1 .1-1.7.3l.8-.6-.5 1.6c-.2.6-.5.9-1 .9s-.8-.3-.9-.8c.4-1.4 1.8-2.3 3.7-2.3 2 0 2.9.9 2.9 3.3v4c0 .9.3 1.2.7 1.2.3 0 .5-.2.7-.4l.4.4c-.5.7-1 1-1.6 1-1-.1-1.7-.9-1.7-2zm-2.2-11.6h1.6l-3.2 2.9-.4-.4 2.5-3.3h.6l2.5 3.3-.4.4-3.2-2.9zM184.1 76.5c0-.9.1-2.8.1-4v-.9c0-1 0-1.6-.1-2.4l-1.5-.2v-.7l2.6-1.1.3.2.2 2.2v2.9c0 1.2 0 3.1.1 4h-1.7zm2.9-.7v.7h-4.4v-.7l2.1-.4h.4l1.9.4zm4.3-5v1.7c0 1.2 0 3.1.1 4h-1.6c0-.9.1-2.8.1-4v-1.6c0-1.8-.5-2.3-1.6-2.3-.9 0-1.7.4-2.7 1.3h-.4V69h1l-.8.3c.9-1.2 2.4-2.1 3.7-2.1 1.5.1 2.2 1.1 2.2 3.6zm-.5 4.7 1.9.4v.7h-4.4v-.7l2.1-.4h.4zm6.2-4.9v2c0 1.2 0 3.1.1 4h-1.6c0-.9.1-2.8.1-4V71c0-1.8-.5-2.3-1.6-2.3-.9 0-1.7.3-2.7 1.3h-.5v-.7h1l-.9.2c1-1.4 2.4-2.1 3.7-2.1 1.5-.1 2.4.8 2.4 3.2zm-.5 4.9 1.9.4v.7H194v-.7l2.1-.4h.4zM204.2 71.1h4.4v1.2h-4.4v-1.2zM214.6 64.5v-.8h2.7v1h-.2l-2.5-.2zm0 5.9v-.9h6.5v.9h-6.5zm2.7 5.1v1h-2.7v-.8l2.5-.3h.2zm-.9-5.8c0-2 0-3.9-.1-5.9h1.8c-.1 1.9-.1 3.9-.1 5.9v.7c0 2.2 0 4.2.1 6.1h-1.8c.1-1.9.1-3.9.1-6.1v-.7zm.9 5.9h2.5c3 0 4.6-2 4.6-5.5 0-3.6-1.6-5.5-4.4-5.5h-2.6v-.9h2.9c3.6 0 6.1 2.2 6.1 6.4 0 4.1-2.8 6.3-6.5 6.3h-2.6v-.8zM231.2 71.5c.8-.3 2-.6 2.9-.8v.7c-.9.2-2 .5-2.5.8-1.7.7-1.9 1.4-1.9 1.9 0 1 .7 1.4 1.5 1.4.7 0 1-.2 2.2-1.1l.4-.3.3.4-.6.6c-1.1 1.1-1.8 1.7-2.9 1.7-1.4 0-2.5-.8-2.5-2.4 0-1.1.6-1.9 3.1-2.9zm2.2 3.3v-4.3c0-1.9-.5-2.3-1.8-2.3-.4 0-1 .1-1.7.3l.8-.6-.5 1.6c-.2.6-.5.9-1 .9s-.8-.3-.9-.8c.4-1.4 1.8-2.3 3.7-2.3 2 0 2.9.9 2.9 3.3v4c0 .9.3 1.2.7 1.2.3 0 .5-.2.7-.4l.4.4c-.5.7-1 1-1.6 1-1-.1-1.7-.9-1.7-2zM230 63c.3.9 1 1.5 2.1 1.5s1.8-.6 2.1-1.5l.6.2c-.2 1.1-1 2.4-2.7 2.4s-2.5-1.3-2.7-2.4l.6-.2zm1.6-.1c.7-.2 1-.3 1-.6 0-.4-.5-.6-1.6-.6l.2-1.2c1.5.1 2.3.7 2.3 1.6 0 .8-.6 1.3-1.7 1.5l-.2-.7zM239 76.5c0-.9.1-2.8.1-4v-.9c0-1 0-1.6-.1-2.4l-1.5-.2v-.7l2.6-1.1.3.2.2 2.2v2.9c0 1.2 0 3.1.1 4H239zm3-.7v.7h-4.4v-.7l2.1-.4h.4l1.9.4zm4.4-5v1.7c0 1.2 0 3.1.1 4h-1.6c0-.9.1-2.8.1-4v-1.6c0-1.8-.5-2.3-1.6-2.3-.9 0-1.7.4-2.8 1.3h-.6V69h1l-.8.3c.9-1.2 2.4-2.1 3.8-2.1 1.6.1 2.4 1.1 2.4 3.6zm-.6 4.7 1.9.4v.7h-4.4v-.7l2.1-.4h.4zM256.2 78.3c0-.9-.5-1.5-1.9-1.5h-2.2c-.3 0-.7 0-.9-.1v-.1c-1-.2-1.5-.7-1.5-1.5 0-.7.4-1.4 1.7-2.5l.4.3c-.6.6-.8 1-.8 1.6 0 .5.2.9 1.1.9h2.5c2 0 3 .9 3 2.4 0 1.6-1.6 3.3-4.6 3.3-2.7 0-3.9-.9-3.9-2.3 0-.9.6-1.6 2.5-2.5l.1.1c-.8.7-1.1 1.3-1.1 2.1 0 1.3 1 1.7 2.5 1.7 2 0 3.1-.9 3.1-1.9zm-3.3-11c1.9 0 3.4 1 3.4 3.1 0 2-1.5 3.1-3.4 3.1-2 0-3.4-1-3.4-3.1 0-2 1.4-3.1 3.4-3.1zm-2 3.1c0 1.4.7 2.3 1.9 2.3s2-1 2-2.4c0-1.3-.7-2.3-1.9-2.3s-2 1-2 2.4zm6.5-3.1.3.2v1.2h-2.8v-.5l2.5-.9zM265 71.9c0 2.4 1.3 3.7 3.1 3.7 1.1 0 2.1-.5 2.7-1.5l.5.2c-.5 1.6-1.7 2.5-3.5 2.5-2.6 0-4.2-1.8-4.2-4.7 0-3 2.1-4.8 4.4-4.8 1.7 0 3.1 1 3.3 2.5-.1.5-.4.7-.9.7-.6 0-.9-.4-1-.9l-.5-1.7.9.7c-.6-.3-1.3-.5-1.8-.5-1.9 0-3 1.3-3 3.8zM275.8 71.5c.8-.3 2-.6 2.9-.8v.7c-.9.2-2 .5-2.5.8-1.7.7-1.9 1.4-1.9 1.9 0 1 .7 1.4 1.5 1.4.7 0 1-.2 2.2-1.1l.4-.3.3.4-.6.6c-1.1 1.1-1.8 1.7-2.9 1.7-1.4 0-2.5-.8-2.5-2.4 0-1.1.5-1.9 3.1-2.9zm2.2 3.3v-4.3c0-1.9-.5-2.3-1.8-2.3-.4 0-1 .1-1.7.3l.8-.6-.5 1.6c-.2.6-.5.9-1 .9s-.8-.3-.9-.8c.4-1.4 1.8-2.3 3.7-2.3 2 0 2.9.9 2.9 3.3v4c0 .9.3 1.2.7 1.2.3 0 .5-.2.7-.4l.4.4c-.5.7-1 1-1.6 1-1-.1-1.7-.9-1.7-2zm-4.1-8.9 2.5-2.1h.6l2.5 2.1-.4.5-3.2-1.8h1.6l-3.2 1.8-.4-.5zm4.6-1.8 1-1.7c.3-.5.6-.7.9-.7.3 0 .6.2.6.6 0 .2-.1.5-.6.9l-1.5 1.3-.4-.4zM286.6 80.4v.7h-4.9v-.7l2.1-.4h.4l2.4.4zm-3.3-8.8c0-1 0-1.6-.1-2.4l-1.5-.2v-.7l2.6-1.1.3.2.2 1.6h.1v6l-.1.1V77c0 1.3 0 2.7.1 4h-1.6c0-1.3.1-2.7.1-4v-5.4zm3.9-3.3c-.7 0-1.7.3-3 1.7l-.2-.3c1.1-1.7 2.3-2.4 3.6-2.4 2 0 3.6 1.8 3.6 4.7 0 2.9-1.7 4.8-3.9 4.8-1.2 0-2.3-.5-3.3-2.5l.2-.3c1 1.3 1.9 1.8 2.8 1.8 1.4 0 2.6-1.1 2.6-3.6s-1-3.9-2.4-3.9zM297.3 71.1h4.4v1.2h-4.4v-1.2zM307.6 64.5v-.8h5.3v.8l-2.5.3h-.4l-2.4-.3zm6.5 11c2.2 0 3.3-1.2 3.3-4.6v-7h1v7.5c0 4-1.9 5.5-4.5 5.5-2.8 0-4.6-1.5-4.6-5.1v-2.1c0-2 0-3.9-.1-5.9h1.8c-.1 1.9-.1 3.9-.1 5.9v1.5c.1 3.2 1.3 4.3 3.2 4.3zm3.5-10.7-2.1-.3v-.8h4.6v.8l-2.1.3h-.4zM320.1 80c.1-.5.7-.8 1.3-.8.5 0 .9.2 1.4.7l.6.6-.7.4-.5-.4c1.3-.6 2-1.9 2.5-3.3l.6-1.7 2.9-8.1h1l-3.4 8.9c-1.3 3.4-2.4 4.9-3.9 4.9-1 .1-1.8-.5-1.8-1.2zm2-11.5-1.9-.3v-.7h4.5v.7l-2.3.3h-.3zm2.8 9-4-10h1.8l3 8.1-.8 1.9zm3.2-9-2-.3v-.7h3.7v.7l-1.3.3h-.4zM338.6 75.8c.4 0 .8-.2 1.3-.5l.4.5c-.5.6-1.3 1-2.2 1-1.3 0-2.1-.7-2.1-2.1v-6.1h-1.6v-.8l2.4-.3-.8.6.6-3.1h1.1l-.2 3.3v6.2c.1.9.5 1.3 1.1 1.3zm1.6-8.3v1h-3.4v-1h3.4zM342.6 72.5v-.9c0-1 0-1.6-.1-2.4L341 69v-.7l2.9-1.1.3.2-.1 2.6v2.5c0 1.2 0 3.1.1 4h-1.6v-4zm-1.5 3.3 2.1-.4h.4l1.9.4v.7h-4.4v-.7zm3.1-12.9c.4-.6.7-.8 1-.8.4 0 .7.2.7.7 0 .2-.1.5-.6 1-.8.7-1.5 1.4-2.3 2.1l-.5-.4c.5-.8 1.1-1.7 1.7-2.6zM348.3 76.5c0-.9.1-2.8.1-4v-.9c0-1 0-1.6-.1-2.4l-1.5-.2v-.7l2.6-1.1.3.2.2 2.2v2.9c0 1.2 0 3.1.1 4h-1.7zm2.9-.7v.7h-4.4v-.7l2.1-.4h.4l1.9.4zm4.4-5v1.7c0 1.2 0 3.1.1 4H354c0-.9.1-2.8.1-4v-1.6c0-1.8-.5-2.3-1.6-2.3-.9 0-1.7.4-2.8 1.3h-.4V69h1l-.8.3c.9-1.2 2.4-2.1 3.8-2.1 1.5.1 2.3 1.1 2.3 3.6zm-.5 4.7 1.9.4v.7h-4.4v-.7l2.1-.4h.4z"/></g></svg>